<svg xmlns="http://www.w3.org/2000/svg" width="219.72" height="35" viewBox="0 0 219.72 35"><rect class="svg__rect" x="0" y="0" width="138.55" height="35" fill="#606060"/><rect class="svg__rect" x="136.55" y="0" width="83.16999999999999" height="35" fill="#000000"/><path class="svg__text" d="M13.95 18.19L13.95 18.19L13.95 17.39Q13.95 16.19 14.38 15.27Q14.80 14.35 15.60 13.85Q16.40 13.35 17.45 13.35L17.45 13.35Q18.86 13.35 19.73 14.12Q20.59 14.89 20.73 16.29L20.73 16.29L19.25 16.29Q19.14 15.37 18.71 14.96Q18.28 14.55 17.45 14.55L17.45 14.55Q16.48 14.55 15.97 15.26Q15.45 15.96 15.44 17.33L15.44 17.33L15.44 18.09Q15.44 19.47 15.93 20.20Q16.43 20.92 17.38 20.92L17.38 20.92Q18.25 20.92 18.69 20.53Q19.13 20.14 19.25 19.22L19.25 19.22L20.73 19.22Q20.60 20.59 19.72 21.35Q18.84 22.12 17.38 22.12L17.38 22.12Q16.36 22.12 15.59 21.63Q14.81 21.15 14.39 20.26Q13.97 19.37 13.95 18.19ZM24.77 18.00L24.77 18.00L24.77 17.52Q24.77 16.28 25.21 15.32Q25.65 14.37 26.46 13.86Q27.27 13.35 28.31 13.35Q29.35 13.35 30.16 13.85Q30.96 14.35 31.40 15.29Q31.84 16.23 31.85 17.48L31.85 17.48L31.85 17.96Q31.85 19.21 31.41 20.16Q30.98 21.10 30.18 21.61Q29.37 22.12 28.32 22.12L28.32 22.12Q27.28 22.12 26.47 21.61Q25.66 21.10 25.22 20.17Q24.78 19.23 24.77 18.00ZM26.25 17.46L26.25 17.96Q26.25 19.36 26.80 20.13Q27.35 20.90 28.32 20.90L28.32 20.90Q29.31 20.90 29.84 20.15Q30.37 19.40 30.37 17.96L30.37 17.96L30.37 17.51Q30.37 16.09 29.83 15.34Q29.29 14.58 28.31 14.58L28.31 14.58Q27.35 14.58 26.81 15.33Q26.26 16.09 26.25 17.46L26.25 17.46ZM38.77 22L36.31 22L36.31 13.47L38.83 13.47Q39.96 13.47 40.84 13.97Q41.72 14.48 42.20 15.40Q42.68 16.33 42.68 17.52L42.68 17.52L42.68 17.95Q42.68 19.16 42.19 20.08Q41.71 21.00 40.82 21.50Q39.92 22 38.77 22L38.77 22ZM37.80 14.66L37.80 20.82L38.76 20.82Q39.93 20.82 40.55 20.09Q41.18 19.36 41.19 17.99L41.19 17.99L41.19 17.52Q41.19 16.13 40.58 15.40Q39.98 14.66 38.83 14.66L38.83 14.66L37.80 14.66ZM52.72 22L47.14 22L47.14 13.47L52.68 13.47L52.68 14.66L48.62 14.66L48.62 17.02L52.13 17.02L52.13 18.19L48.62 18.19L48.62 20.82L52.72 20.82L52.72 22ZM64.37 22L62.89 22L62.89 13.47L68.31 13.47L68.31 14.66L64.37 14.66L64.37 17.20L67.81 17.20L67.81 18.38L64.37 18.38L64.37 22ZM72.20 18.00L72.20 18.00L72.20 17.52Q72.20 16.28 72.64 15.32Q73.09 14.37 73.89 13.86Q74.70 13.35 75.74 13.35Q76.78 13.35 77.59 13.85Q78.39 14.35 78.83 15.29Q79.27 16.23 79.28 17.48L79.28 17.48L79.28 17.96Q79.28 19.21 78.85 20.16Q78.41 21.10 77.61 21.61Q76.80 22.12 75.75 22.12L75.75 22.12Q74.72 22.12 73.90 21.61Q73.09 21.10 72.65 20.17Q72.21 19.23 72.20 18.00ZM73.68 17.46L73.68 17.96Q73.68 19.36 74.23 20.13Q74.78 20.90 75.75 20.90L75.75 20.90Q76.74 20.90 77.27 20.15Q77.80 19.40 77.80 17.96L77.80 17.96L77.80 17.51Q77.80 16.09 77.26 15.34Q76.72 14.58 75.74 14.58L75.74 14.58Q74.78 14.58 74.24 15.33Q73.70 16.09 73.68 17.46L73.68 17.46ZM85.23 22L83.74 22L83.74 13.47L86.74 13.47Q88.22 13.47 89.02 14.13Q89.83 14.79 89.83 16.05L89.83 16.05Q89.83 16.90 89.41 17.48Q89.00 18.06 88.26 18.37L88.26 18.37L90.18 21.92L90.18 22L88.59 22L86.88 18.71L85.23 18.71L85.23 22ZM85.23 14.66L85.23 17.52L86.75 17.52Q87.50 17.52 87.92 17.15Q88.34 16.77 88.34 16.11L88.34 16.11Q88.34 15.43 87.95 15.05Q87.56 14.68 86.79 14.66L86.79 14.66L85.23 14.66ZM95.70 22L94.22 22L94.22 13.47L96.14 13.47L98.60 20.01L101.06 13.47L102.97 13.47L102.97 22L101.50 22L101.50 19.19L101.64 15.43L99.13 22L98.06 22L95.55 15.43L95.70 19.19L95.70 22ZM108.49 22L106.95 22L110.18 13.47L111.51 13.47L114.73 22L113.19 22L112.49 20.01L109.19 20.01L108.49 22ZM110.84 15.28L109.60 18.82L112.07 18.82L110.84 15.28ZM120.37 14.66L117.73 14.66L117.73 13.47L124.50 13.47L124.50 14.66L121.84 14.66L121.84 22L120.37 22L120.37 14.66Z" fill="#FFFFFF"/><path class="svg__text" d="M155.28 22L150.74 22L150.74 13.60L155.04 13.60Q156.64 13.60 157.48 14.19Q158.33 14.79 158.33 15.79L158.33 15.79Q158.33 16.39 158.03 16.87Q157.73 17.34 157.19 17.62L157.19 17.62Q157.92 17.87 158.32 18.41Q158.73 18.94 158.73 19.70L158.73 19.70Q158.73 20.80 157.84 21.40Q156.95 22 155.28 22L155.28 22ZM153.09 18.58L153.09 20.28L155.09 20.28Q156.33 20.28 156.33 19.43L156.33 19.43Q156.33 18.58 155.09 18.58L155.09 18.58L153.09 18.58ZM153.09 15.31L153.09 16.94L154.72 16.94Q155.92 16.94 155.92 16.12L155.92 16.12Q155.92 15.31 154.72 15.31L154.72 15.31L153.09 15.31ZM169.83 22L163.45 22L163.45 13.60L165.83 13.60L165.83 20.11L169.83 20.11L169.83 22ZM175.67 22L173.24 22L176.95 13.60L179.30 13.60L183.01 22L180.54 22L179.88 20.37L176.33 20.37L175.67 22ZM178.11 15.93L177.02 18.61L179.19 18.61L178.11 15.93ZM186.74 17.80L186.74 17.80Q186.74 16.54 187.34 15.54Q187.93 14.55 188.98 13.99Q190.04 13.43 191.36 13.43L191.36 13.43Q192.51 13.43 193.43 13.84Q194.36 14.25 194.97 15.02L194.97 15.02L193.46 16.39Q192.64 15.40 191.48 15.40L191.48 15.40Q190.79 15.40 190.26 15.70Q189.73 16 189.43 16.54Q189.13 17.09 189.13 17.80L189.13 17.80Q189.13 18.51 189.43 19.05Q189.73 19.60 190.26 19.90Q190.79 20.20 191.48 20.20L191.48 20.20Q192.64 20.20 193.46 19.22L193.46 19.22L194.97 20.58Q194.36 21.35 193.44 21.76Q192.51 22.17 191.36 22.17L191.36 22.17Q190.04 22.17 188.98 21.61Q187.93 21.05 187.34 20.05Q186.74 19.06 186.74 17.80ZM201.86 22L199.51 22L199.51 13.60L201.86 13.60L201.86 17.09L205.11 13.60L207.73 13.60L204.30 17.32L207.91 22L205.15 22L202.75 18.95L201.86 19.90L201.86 22Z" fill="#FFFFFF" x="149.55"/></svg>