<svg xmlns="http://www.w3.org/2000/svg" width="145.88" height="35" viewBox="0 0 145.88 35"><rect class="svg__rect" x="0" y="0" width="88.08" height="35" fill="#306998"/><rect class="svg__rect" x="86.08" y="0" width="59.80000000000001" height="35" fill="#FFD43B"/><path class="svg__text" d="M15.70 22L14.22 22L14.22 13.47L17.48 13.47Q18.91 13.47 19.75 14.21Q20.59 14.96 20.59 16.18L20.59 16.18Q20.59 17.44 19.77 18.13Q18.95 18.83 17.46 18.83L17.46 18.83L15.70 18.83L15.70 22ZM15.70 14.66L15.70 17.64L17.48 17.64Q18.27 17.64 18.69 17.27Q19.10 16.90 19.10 16.19L19.10 16.19Q19.10 15.50 18.68 15.09Q18.26 14.68 17.52 14.66L17.52 14.66L15.70 14.66ZM26.91 18.86L24.05 13.47L25.70 13.47L27.66 17.51L29.62 13.47L31.26 13.47L28.40 18.86L28.40 22L26.91 22L26.91 18.86ZM36.86 14.66L34.22 14.66L34.22 13.47L40.99 13.47L40.99 14.66L38.33 14.66L38.33 22L36.86 22L36.86 14.66ZM46.23 22L44.74 22L44.74 13.47L46.23 13.47L46.23 17.02L50.04 17.02L50.04 13.47L51.52 13.47L51.52 22L50.04 22L50.04 18.21L46.23 18.21L46.23 22ZM55.99 18.00L55.99 18.00L55.99 17.52Q55.99 16.28 56.43 15.32Q56.87 14.37 57.68 13.86Q58.48 13.35 59.53 13.35Q60.57 13.35 61.38 13.85Q62.18 14.35 62.62 15.29Q63.06 16.23 63.07 17.48L63.07 17.48L63.07 17.96Q63.07 19.21 62.63 20.16Q62.20 21.10 61.39 21.61Q60.59 22.12 59.54 22.12L59.54 22.12Q58.50 22.12 57.69 21.61Q56.88 21.10 56.44 20.17Q55.99 19.23 55.99 18.00ZM57.47 17.46L57.47 17.96Q57.47 19.36 58.02 20.13Q58.57 20.90 59.54 20.90L59.54 20.90Q60.52 20.90 61.05 20.15Q61.58 19.40 61.58 17.96L61.58 17.96L61.58 17.51Q61.58 16.09 61.05 15.34Q60.51 14.58 59.53 14.58L59.53 14.58Q58.57 14.58 58.02 15.33Q57.48 16.09 57.47 17.46L57.47 17.46ZM69.01 22L67.53 22L67.53 13.47L69.01 13.47L72.83 19.54L72.83 13.47L74.30 13.47L74.30 22L72.82 22L69.01 15.95L69.01 22Z" fill="#FFFFFF"/><path class="svg__text" d="M99.38 21.34L99.38 21.34L100.24 19.55Q100.74 19.88 101.35 20.07Q101.97 20.25 102.58 20.25L102.58 20.25Q103.19 20.25 103.55 20.02Q103.91 19.79 103.91 19.37L103.91 19.37Q103.91 18.55 102.62 18.55L102.62 18.55L101.63 18.55L101.63 17.05L103.13 15.44L99.82 15.44L99.82 13.60L105.89 13.60L105.89 15.09L104.15 16.96Q105.19 17.18 105.75 17.82Q106.31 18.46 106.31 19.37L106.31 19.37Q106.31 20.11 105.90 20.75Q105.50 21.39 104.68 21.78Q103.86 22.17 102.65 22.17L102.65 22.17Q101.76 22.17 100.89 21.95Q100.02 21.74 99.38 21.34ZM110.47 20.75L110.47 20.75Q110.47 20.15 110.86 19.78Q111.25 19.41 111.84 19.41L111.84 19.41Q112.44 19.41 112.82 19.78Q113.21 20.15 113.21 20.75L113.21 20.75Q113.21 21.34 112.82 21.72Q112.43 22.11 111.84 22.11L111.84 22.11Q111.26 22.11 110.86 21.72Q110.47 21.34 110.47 20.75ZM118.66 15.44L117.10 15.44L117.10 13.60L121.03 13.60L121.03 22L118.66 22L118.66 15.44ZM125.78 17.80L125.78 17.80Q125.78 16.45 126.25 15.46Q126.72 14.46 127.56 13.95Q128.40 13.43 129.48 13.43L129.48 13.43Q130.55 13.43 131.39 13.95Q132.23 14.46 132.71 15.46Q133.18 16.45 133.18 17.80L133.18 17.80Q133.18 19.15 132.71 20.15Q132.23 21.14 131.39 21.65Q130.55 22.17 129.48 22.17L129.48 22.17Q128.40 22.17 127.56 21.65Q126.72 21.14 126.25 20.15Q125.78 19.16 125.78 17.80ZM128.16 17.80L128.16 17.80Q128.16 19.06 128.52 19.64Q128.87 20.22 129.48 20.22L129.48 20.22Q130.09 20.22 130.44 19.64Q130.80 19.06 130.80 17.80L130.80 17.80Q130.80 16.54 130.44 15.96Q130.09 15.38 129.48 15.38L129.48 15.38Q128.87 15.38 128.52 15.96Q128.16 16.54 128.16 17.80Z" fill="#4B8BBE" x="99.08"/></svg>